<?xml version="1.0" standalone="no"?>
<!DOCTYPE svg PUBLIC "-//W3C//DTD SVG 20010904//EN"
 "http://www.w3.org/TR/2001/REC-SVG-20010904/DTD/svg10.dtd">
<svg version="1.0" xmlns="http://www.w3.org/2000/svg"
 width="500.000000pt" height="500.000000pt" viewBox="0 0 500.000000 500.000000"
 preserveAspectRatio="xMidYMid meet">
<metadata>
Created by potrace 1.14, written by Peter Selinger 2001-2017
</metadata>
<g transform="translate(0.000000,500.000000) scale(0.100000,-0.100000)"
fill="#000000" stroke="none">
<path d="M4131 4144 c-52 -22 -103 -107 -116 -194 -11 -71 -9 -168 4 -183 6
-8 8 -16 6 -19 -3 -3 4 -30 15 -61 34 -91 107 -168 146 -153 9 3 12 1 9 -4 -4
-6 7 -10 26 -10 18 0 29 3 25 8 -4 4 -11 7 -15 7 -4 0 -21 16 -37 35 -44 52
-86 110 -79 110 3 0 -2 15 -11 33 -26 48 -28 205 -5 278 22 69 62 124 110 149
l36 20 -43 -2 c-23 -1 -55 -7 -71 -14z"/>
<path d="M2754 4101 c-40 -24 -73 -78 -76 -124 -2 -21 -6 -37 -10 -37 -10 0
-48 75 -48 94 0 34 -20 23 -43 -24 -20 -39 -25 -62 -22 -101 4 -48 3 -50 -18
-43 -35 11 -110 13 -135 3 -23 -9 -23 -9 17 -47 46 -43 50 -53 19 -47 -26 5
-95 -24 -126 -55 -27 -25 -26 -27 11 -34 15 -2 37 -8 48 -11 20 -7 19 -8 -10
-26 -36 -22 -71 -74 -71 -106 0 -13 2 -23 5 -23 2 0 26 14 52 30 26 17 54 30
62 30 9 1 3 6 -13 13 -27 12 -27 13 -11 27 10 8 29 20 43 25 l25 10 -27 25
c-14 14 -26 29 -26 33 0 11 107 7 140 -5 l25 -9 -26 28 c-23 24 -59 83 -59 97
0 8 74 -16 122 -40 l48 -24 -21 40 c-12 22 -23 61 -25 87 l-5 48 31 -37 c28
-34 120 -108 134 -108 3 0 -3 17 -13 38 -19 35 -25 71 -22 117 2 17 5 15 19
-11 23 -40 42 -65 71 -89 l24 -20 -15 30 c-35 68 -50 115 -50 161 1 55 4 73
15 92 12 17 -3 15 -39 -7z"/>
<path d="M4258 4106 c-78 -41 -112 -114 -112 -241 0 -77 3 -98 27 -150 29 -61
81 -125 103 -125 7 0 14 -5 16 -11 2 -7 17 -8 41 -4 20 4 34 11 31 17 -3 5
-11 7 -17 5 -19 -6 -104 102 -112 143 -26 123 -21 199 16 277 22 46 61 83 88
83 14 0 14 2 1 10 -21 14 -51 12 -82 -4z"/>
<path d="M1885 4031 c-4 -12 -19 -27 -33 -32 l-27 -11 24 -12 c13 -7 30 -24
37 -37 10 -19 13 -20 14 -6 0 9 15 26 33 37 31 20 31 20 9 26 -12 4 -29 18
-36 32 l-13 26 -8 -23z"/>
<path d="M4342 4034 c-75 -52 -87 -223 -24 -325 21 -35 67 -67 90 -63 6 1 22
2 34 3 22 1 22 1 -2 18 -36 25 -70 60 -70 73 0 6 -4 9 -8 6 -4 -2 -8 3 -9 12
0 9 -3 44 -6 78 -6 78 12 130 58 170 29 26 33 33 19 38 -27 10 -59 7 -82 -10z"/>
<path d="M3016 3983 c-3 -11 -19 -26 -34 -33 l-27 -13 27 -10 c15 -6 32 -22
37 -36 l9 -26 10 27 c6 14 20 29 31 33 24 7 28 25 7 25 -8 0 -23 12 -34 27
-19 25 -20 26 -26 6z"/>
<path d="M3474 3981 c-45 -28 -87 -127 -89 -215 -2 -69 11 -136 26 -136 5 0 6
-6 3 -14 -12 -30 48 -116 98 -142 33 -17 84 -18 94 -2 4 6 3 8 -3 5 -13 -8
-86 68 -109 113 -46 90 -50 211 -11 294 26 55 44 74 92 99 l30 16 -50 1 c-32
0 -61 -7 -81 -19z"/>
<path d="M3340 3968 c-52 -35 -83 -105 -88 -198 -2 -44 -1 -87 3 -97 4 -10 9
-27 10 -39 10 -68 71 -159 121 -180 59 -25 70 -18 34 23 -32 36 -80 126 -80
150 0 7 -7 10 -17 7 -12 -4 -14 -3 -6 3 8 6 11 31 9 75 -6 110 18 197 69 253
l24 25 -23 0 c-13 0 -38 -10 -56 -22z"/>
<path d="M2100 3951 c-9 -22 -25 -39 -49 -49 l-36 -15 37 -15 c28 -11 40 -23
49 -50 l12 -36 11 35 c7 23 22 39 44 49 l33 16 -34 16 c-23 11 -36 26 -43 49
l-10 34 -14 -34z"/>
<path d="M4437 3960 c-15 -12 -29 -36 -33 -56 -8 -46 4 -126 18 -118 7 5 8 2
3 -5 -10 -17 33 -61 61 -61 12 0 27 7 34 15 10 12 10 15 -2 15 -28 0 -53 43
-52 90 1 73 3 79 25 101 17 17 19 23 8 30 -21 13 -34 11 -62 -11z"/>
<path d="M3938 3946 c-17 -9 -28 -11 -28 -4 0 6 -14 8 -37 4 -21 -3 -51 -6
-66 -6 -15 0 -38 -5 -50 -12 -12 -7 -30 -11 -40 -9 -21 3 -57 -25 -57 -45 0
-10 7 -11 31 -2 26 9 37 8 60 -6 29 -17 29 -17 39 8 5 14 12 26 15 26 4 0 3
-5 0 -10 -8 -12 -8 -76 -1 -109 13 -60 54 -50 54 13 0 23 7 58 15 77 l15 34
-3 -50 c-1 -27 2 -65 7 -82 7 -28 13 -33 38 -33 l29 0 -1 63 c-1 34 1 83 5
110 4 26 6 47 5 47 -2 0 -15 -7 -30 -14z"/>
<path d="M4517 3900 c-11 -16 -13 -29 -7 -46 5 -13 7 -24 4 -24 -2 0 0 -9 6
-20 9 -16 15 -18 30 -10 26 14 27 70 2 100 l-19 23 -16 -23z"/>
<path d="M1486 3818 c-9 -21 -16 -41 -16 -46 0 -4 -21 -17 -47 -28 l-48 -20
47 -14 c43 -13 48 -18 59 -57 6 -24 17 -46 23 -50 6 -3 8 -3 4 1 -3 4 0 27 8
50 13 38 20 45 57 56 l42 13 -43 20 c-36 18 -45 29 -56 67 l-14 45 -16 -37z"/>
<path d="M3663 3833 c-39 -13 -42 -18 -48 -58 -4 -24 -4 -51 -1 -62 8 -25 66
-89 78 -85 5 1 7 -1 4 -6 -7 -12 32 -46 69 -61 25 -10 38 -9 69 4 33 14 110
34 144 37 7 1 10 9 7 20 -3 10 -7 26 -10 36 -3 10 -15 18 -28 19 -12 0 -62 4
-112 8 -49 4 -95 8 -102 8 -7 0 -10 4 -8 8 3 4 -2 10 -11 13 -10 4 -13 2 -9
-7 4 -6 0 -4 -8 6 -8 9 -19 17 -25 17 -26 0 -20 21 10 33 43 18 60 40 51 63
-10 24 -18 25 -70 7z"/>
<path d="M3185 3776 c-26 -19 -26 -108 1 -161 24 -49 50 -62 39 -19 -4 16 -8
66 -9 111 0 46 -4 83 -7 83 -3 0 -14 -6 -24 -14z"/>
<path d="M3530 3775 c-21 -26 9 -119 35 -108 13 5 13 7 -2 20 -10 8 -13 12 -8
9 7 -3 11 13 11 43 0 48 -14 62 -36 36z"/>
<path d="M1807 3702 c-10 -37 -19 -71 -21 -77 -2 -5 -7 -29 -11 -53 -9 -48
-10 -49 -51 -56 -49 -9 -194 -49 -191 -52 2 -2 52 -15 112 -28 59 -14 111 -28
114 -33 4 -4 20 -61 35 -126 28 -117 33 -128 40 -90 3 11 16 65 31 120 l27
101 42 11 c22 5 55 12 71 15 17 3 50 12 75 19 l45 13 -90 23 c-49 13 -101 25
-115 28 -13 2 -26 5 -27 7 -1 1 -18 57 -36 124 l-33 122 -17 -68z"/>
<path d="M3761 3753 c-16 -17 -11 -25 8 -14 7 5 12 13 10 19 -2 6 -10 4 -18
-5z"/>
<path d="M2725 3691 c-96 -28 -172 -69 -235 -127 -75 -70 -105 -128 -89 -172
6 -18 14 -32 18 -32 4 0 17 17 28 38 25 43 110 127 168 165 63 41 184 77 264
78 74 1 80 8 43 52 -20 23 -115 22 -197 -2z"/>
<path d="M2790 3574 c-30 -8 -74 -25 -99 -37 -59 -29 -151 -115 -192 -179 -35
-54 -35 -54 -24 -214 l4 -62 -42 -33 c-23 -18 -50 -43 -59 -55 -14 -18 -31
-22 -86 -26 -53 -3 -77 -10 -112 -32 -63 -40 -117 -111 -139 -180 -21 -68 -20
-183 2 -256 13 -44 12 -46 -20 -88 -38 -50 -54 -101 -56 -184 -2 -59 -3 -62
-40 -86 -39 -26 -91 -90 -122 -152 -17 -33 -64 -200 -65 -227 0 -23 149 50
231 113 77 59 139 144 105 144 -17 0 -48 28 -72 64 l-19 30 25 -8 c52 -16 119
-8 165 19 25 14 45 27 45 28 0 1 -21 52 -46 112 -58 138 -74 187 -77 245 -4
58 18 156 44 195 12 16 18 22 15 12 -31 -97 -24 -201 20 -276 27 -46 97 -80
156 -76 55 3 114 34 112 59 -2 12 1 14 10 6 18 -14 26 -2 16 25 -32 84 -17
220 34 312 l24 42 -36 23 c-45 28 -146 34 -198 12 -20 -8 -39 -12 -43 -9 -9
10 59 63 98 76 43 14 131 6 165 -16 14 -9 29 -14 35 -11 15 9 31 67 39 138 l8
63 19 -73 c22 -82 24 -82 70 8 l23 46 -39 44 c-47 54 -78 115 -85 167 l-6 38
21 -41 c29 -56 106 -95 188 -97 59 -1 127 8 145 19 13 8 3 173 -11 187 -5 5
-24 10 -40 11 -42 1 -39 10 9 29 l39 15 -24 47 c-14 25 -25 47 -25 49 0 2 16
2 35 1 38 -3 42 2 22 29 -17 24 -79 28 -147 10z m44 -68 c-5 -22 -10 -25 -28
-20 -11 4 -42 8 -68 8 -80 0 -55 20 42 32 25 4 47 8 49 10 9 9 12 -5 5 -30z"/>
<path d="M3938 3535 c-2 -2 -17 -5 -34 -8 -51 -8 -106 -38 -100 -54 4 -8 6
-19 6 -25 0 -7 5 -7 13 1 30 25 144 53 214 53 18 0 21 4 14 17 -7 11 -25 16
-60 17 -27 1 -51 0 -53 -1z"/>
<path d="M1039 3448 c-14 -48 -18 -52 -67 -70 -29 -11 -50 -23 -47 -27 2 -5
24 -14 49 -21 39 -11 46 -17 62 -58 9 -26 17 -52 17 -60 0 -22 14 1 31 54 15
47 20 51 67 69 l51 18 -53 22 c-48 21 -55 28 -69 68 -8 25 -17 48 -20 51 -3 3
-13 -18 -21 -46z"/>
<path d="M3958 3444 c-2 -1 -20 -5 -40 -8 -20 -3 -53 -13 -73 -23 -31 -15 -35
-21 -30 -43 9 -34 11 -35 39 -17 13 9 37 19 53 22 48 9 106 17 148 20 22 2 43
4 47 4 4 1 2 12 -4 26 -11 24 -16 26 -75 24 -34 -1 -64 -3 -65 -5z"/>
<path d="M3970 3318 c-105 -16 -116 -23 -138 -86 -43 -122 -52 -158 -52 -218
0 -66 29 -162 55 -184 23 -19 18 -29 -12 -24 -30 6 -76 42 -81 65 -7 31 -19
28 -17 -6 1 -41 -13 -41 -37 2 -21 35 -28 84 -18 129 5 22 4 37 -4 44 -28 22
-113 17 -231 -15 l-30 -8 30 25 c17 14 40 28 53 32 17 6 19 10 10 19 -37 35
-111 55 -193 53 -106 -3 -219 -60 -281 -142 l-27 -35 23 -41 c21 -38 22 -41 4
-33 -178 73 -374 10 -455 -147 -51 -99 -56 -202 -13 -276 32 -55 74 -74 175
-80 171 -10 301 61 374 205 21 40 27 67 27 120 1 65 -8 149 -18 165 -13 21 11
3 55 -41 62 -62 121 -93 184 -97 27 -1 51 -4 53 -7 8 -7 44 4 44 14 0 5 6 6
13 3 7 -2 30 2 50 11 43 18 47 18 47 5 0 -21 -68 -84 -112 -105 -42 -20 -45
-23 -30 -36 24 -20 100 -55 150 -69 24 -6 82 -10 129 -9 73 1 95 6 139 29 29
16 55 26 57 23 10 -9 116 -13 121 -4 3 5 14 7 24 4 30 -8 63 39 67 95 2 36 11
62 32 93 17 24 35 60 42 80 23 70 11 229 -23 309 -10 25 -11 21 -12 -44 -1
-85 -6 -126 -16 -119 -8 4 -12 -12 -9 -30 1 -5 -3 -6 -8 -3 -5 4 -14 0 -18 -9
-5 -8 -9 34 -9 103 0 64 -3 128 -7 142 -4 14 -10 40 -13 58 -8 42 -27 50 -94
40z"/>
<path d="M1511 3227 c-6 -15 -14 -39 -17 -52 -5 -18 -19 -28 -62 -43 l-56 -18
55 -20 c52 -19 55 -21 75 -77 l20 -59 17 61 c17 60 18 61 62 73 25 7 45 16 45
20 0 4 -19 13 -41 20 -33 10 -44 19 -56 47 -32 82 -30 79 -42 48z"/>
<path d="M2006 3158 c-3 -10 -8 -25 -11 -34 -3 -9 -19 -21 -35 -27 -37 -14
-38 -22 -2 -35 18 -6 34 -22 42 -41 l12 -31 18 32 c10 20 30 36 51 44 l34 12
-28 11 c-16 6 -32 11 -36 11 -5 0 -15 17 -23 38 -12 29 -17 33 -22 20z"/>
<path d="M947 3094 c-4 -4 -7 -15 -7 -24 0 -9 -15 -23 -32 -32 l-33 -16 27 -7
c16 -4 31 -18 39 -36 l12 -30 17 29 c10 16 31 33 47 37 l28 7 -32 13 c-17 7
-38 25 -45 40 -8 14 -17 23 -21 19z"/>
<path d="M1187 2923 c-16 -60 -34 -134 -41 -166 -8 -32 -15 -59 -17 -61 -2 -1
-65 -17 -139 -35 -221 -54 -219 -50 -31 -96 102 -25 166 -46 171 -55 4 -8 10
-28 13 -45 2 -16 15 -64 27 -105 12 -41 23 -79 25 -85 1 -5 5 -27 10 -48 10
-49 21 -55 29 -14 8 42 78 301 82 306 2 2 79 23 171 46 l168 43 -50 13 c-27 7
-104 27 -169 44 l-120 30 -27 100 c-15 55 -35 130 -45 168 -9 37 -20 67 -23
67 -4 0 -19 -48 -34 -107z"/>
<path d="M1767 2890 c-3 -11 -18 -25 -34 -31 l-28 -11 33 -16 c17 -9 32 -22
32 -29 0 -7 5 -13 10 -13 6 0 10 5 10 10 0 6 14 19 32 30 l32 19 -28 11 c-15
5 -30 19 -33 30 -3 11 -9 20 -13 20 -4 0 -10 -9 -13 -20z"/>
<path d="M3217 2511 c-40 -60 -85 -99 -161 -138 -83 -42 -168 -61 -256 -57
-69 3 -90 6 -179 26 -75 16 -65 17 -163 -25 -49 -21 -104 -38 -123 -39 -39 -1
-39 -2 -36 -92 1 -27 10 -71 21 -98 10 -27 17 -59 15 -71 -2 -12 -6 -44 -10
-71 -3 -27 -8 -53 -11 -57 -2 -4 -52 -34 -109 -66 -58 -32 -140 -78 -183 -102
-90 -50 -684 -351 -790 -400 -40 -18 -71 -35 -69 -38 4 -3 147 38 292 83 64
20 263 98 335 131 30 14 84 37 120 51 75 29 666 326 689 346 9 7 57 36 106 63
147 82 458 296 522 359 7 7 25 22 39 33 23 18 27 29 27 71 0 48 -27 130 -43
130 -4 0 -19 -18 -33 -39z m-612 -341 c-10 -16 27 -40 63 -41 74 -2 117 3 124
14 5 8 8 8 8 1 0 -22 -49 -56 -87 -60 -65 -6 -87 -14 -121 -47 -32 -31 -33
-31 -39 -9 -7 27 -34 35 -94 29 -35 -4 -49 -1 -66 16 -13 11 -23 23 -23 26 0
3 23 7 50 8 28 0 56 6 64 12 7 6 15 8 19 5 12 -12 45 8 51 31 3 13 14 25 24
28 21 4 34 -1 27 -13z"/>
<path d="M4292 2341 c-35 -54 -82 -117 -104 -141 -126 -138 -163 -175 -268
-264 -310 -263 -721 -483 -1280 -684 -162 -58 -420 -134 -570 -167 -105 -23
-211 -45 -235 -49 -78 -13 -214 -37 -247 -45 -21 -5 -35 -5 -33 0 5 8 150 55
395 129 213 64 300 94 500 170 259 99 260 100 410 175 247 124 252 126 435
249 126 83 265 195 351 281 50 50 177 193 204 230 12 15 -97 -70 -120 -95 -47
-50 -262 -204 -420 -301 -243 -150 -731 -369 -1020 -460 -36 -11 -128 -40
-205 -65 -199 -62 -521 -141 -532 -130 -2 2 40 21 94 41 54 21 114 44 133 52
19 8 96 37 170 65 710 264 1270 601 1563 943 28 33 43 53 32 44 -11 -8 -45
-36 -75 -61 -139 -114 -526 -353 -735 -452 -33 -16 -82 -40 -110 -53 -92 -46
-349 -160 -420 -188 -38 -14 -110 -43 -160 -62 -233 -92 -694 -252 -810 -282
-114 -29 -188 -21 -224 26 -50 63 -6 171 124 299 77 76 229 193 335 259 52 32
97 62 98 66 2 5 9 9 16 9 7 0 21 7 32 15 17 13 15 13 -16 1 -19 -8 -85 -39
-145 -69 -376 -186 -648 -436 -708 -653 -21 -75 -21 -96 -1 -163 44 -148 223
-220 540 -215 240 3 477 36 793 110 108 25 203 47 211 49 45 10 299 97 458
156 517 193 885 404 1180 677 45 42 103 102 128 134 25 32 51 63 57 70 38 39
151 228 195 327 29 63 50 116 49 116 -1 1 -30 -41 -65 -94z"/>
<path d="M1575 2246 c-7 -37 -36 -66 -67 -66 -35 0 -27 -19 12 -31 36 -11 42
-17 51 -56 6 -23 14 -43 18 -43 4 0 12 19 18 43 10 37 17 44 55 58 l43 16 -45
15 c-37 12 -45 20 -53 49 -13 51 -25 56 -32 15z"/>
<path d="M1065 2048 c-4 -17 -18 -31 -38 -39 l-31 -13 28 -12 c16 -6 34 -22
41 -34 l13 -23 7 22 c4 13 21 29 38 36 l32 13 -27 11 c-15 5 -33 23 -42 38
l-14 28 -7 -27z"/>
<path d="M4124 1642 c-4 -13 -20 -29 -38 -36 l-31 -14 33 -12 c21 -8 34 -21
39 -37 l6 -26 14 27 c8 15 26 32 41 37 26 10 26 11 7 21 -11 5 -30 22 -43 37
l-22 26 -6 -23z"/>
<path d="M3866 1503 c-3 -10 -10 -37 -15 -59 -11 -40 -14 -43 -79 -67 l-67
-25 39 -16 c22 -9 50 -19 63 -22 28 -7 36 -22 53 -94 l13 -55 24 70 23 70 60
19 c33 11 60 22 60 26 0 3 -24 14 -52 25 -70 24 -74 28 -88 86 -13 53 -26 69
-34 42z"/>
<path d="M3514 1149 c-16 -44 -24 -53 -58 -64 -62 -21 -63 -31 -8 -49 48 -16
51 -19 68 -73 l17 -55 21 58 c20 55 23 58 71 75 l50 17 -35 14 c-19 8 -42 18
-51 21 -10 3 -24 28 -34 56 -9 28 -18 51 -20 51 -1 0 -11 -23 -21 -51z"/>
<path d="M3186 1048 c-20 -20 -24 -28 -13 -28 9 0 23 -12 31 -27 10 -19 15
-23 16 -11 0 9 9 23 21 31 l20 15 -23 23 -23 24 -29 -27z"/>
<path d="M2955 918 c-12 -24 -31 -43 -54 -54 -20 -9 -37 -18 -39 -19 -2 -2 6
-20 17 -41 12 -21 21 -46 21 -56 0 -14 5 -15 29 -8 15 4 35 4 42 -1 22 -14 39
-10 39 9 0 9 9 32 20 50 l20 33 -30 30 c-16 17 -34 45 -38 62 l-9 32 -18 -37z"/>
<path d="M2584 818 c-5 -8 -20 -21 -34 -28 l-25 -13 26 -9 c15 -5 30 -19 34
-31 l6 -22 11 22 c6 13 19 25 29 28 22 7 25 25 5 25 -7 0 -20 10 -28 22 -13
19 -16 20 -24 6z"/>
<path d="M2236 705 c-3 -8 -18 -20 -33 -26 l-28 -11 24 -12 c13 -7 30 -24 37
-37 l14 -24 6 23 c4 13 18 28 33 34 l26 10 -27 14 c-16 8 -28 21 -28 29 0 20
-16 19 -24 0z"/>
</g>
</svg>
